# xmcd CD database file
#
# Track frame offsets:
#	150
#	18089
#	32907
#	54128
#	71992
#	99195
#	117602
#	131425
#	141947
#	163499
#
# Disc length: 2364 seconds
#
# Revision: 1
# Processed by: cddbd v1.5PL3 Copyright (c) Steve Scherf et al.
# Submitted via: CDex 1.51
#
DISCID=8b093a0a
DTITLE=Janina Bürgi and Tobias Pestalozzi - Jazz - Yes it is! (Maturaarbeitspräsentation, 2. März 2004 , 20.00 Aula Seminar Kreuzlingen)
DYEAR=2004
DGENRE=Jazz
TTITLE0=A voice too soft
TTITLE1=The nearness of you
TTITLE2=Can't get you out of my head
TTITLE3=A chlid is born
TTITLE4=Lost melody
TTITLE5=My foolsh heart
TTITLE6=Black Orpheus
TTITLE7=Softly, as in a morning sunrise
TTITLE8=love has no pride
TTITLE9=black orpheus (zugabe)
EXTD=YEAR: 2004
EXTT0=
EXTT1=
EXTT2=
EXTT3=
EXTT4=
EXTT5=
EXTT6=
EXTT7=
EXTT8=
EXTT9=
PLAYORDER=
